<mxfile host="app.diagrams.net" agent="Mozilla/5.0 (X11; Linux x86_64) AppleWebKit/537.36 (KHTML, like Gecko) Chrome/131.0.0.0 Safari/537.36" version="25.0.1">
  <diagram name="第 1 页" id="HpsvsUy3XgbSGNTfzFCB">
    <mxGraphModel dx="1478" dy="1544" grid="1" gridSize="10" guides="1" tooltips="1" connect="1" arrows="1" fold="1" page="1" pageScale="1" pageWidth="827" pageHeight="1169" math="0" shadow="0">
      <root>
        <mxCell id="0" />
        <mxCell id="1" parent="0" />
        <mxCell id="RNrHDuI6F-FysctBrL8V-6" value="" style="edgeStyle=orthogonalEdgeStyle;rounded=0;orthogonalLoop=1;jettySize=auto;html=1;" parent="1" source="RNrHDuI6F-FysctBrL8V-4" target="RNrHDuI6F-FysctBrL8V-5" edge="1">
          <mxGeometry relative="1" as="geometry" />
        </mxCell>
        <mxCell id="RNrHDuI6F-FysctBrL8V-4" value="parser" style="rounded=0;whiteSpace=wrap;html=1;" parent="1" vertex="1">
          <mxGeometry x="100" y="60" width="100" height="50" as="geometry" />
        </mxCell>
        <mxCell id="RNrHDuI6F-FysctBrL8V-8" value="" style="edgeStyle=orthogonalEdgeStyle;rounded=0;orthogonalLoop=1;jettySize=auto;html=1;" parent="1" source="RNrHDuI6F-FysctBrL8V-5" target="RNrHDuI6F-FysctBrL8V-7" edge="1">
          <mxGeometry relative="1" as="geometry" />
        </mxCell>
        <mxCell id="HRzx6jAXvU5smbXzW3e8-7" style="edgeStyle=orthogonalEdgeStyle;rounded=0;orthogonalLoop=1;jettySize=auto;html=1;entryX=0.5;entryY=0;entryDx=0;entryDy=0;" parent="1" source="RNrHDuI6F-FysctBrL8V-5" target="HRzx6jAXvU5smbXzW3e8-5" edge="1">
          <mxGeometry relative="1" as="geometry" />
        </mxCell>
        <mxCell id="RNrHDuI6F-FysctBrL8V-5" value="logging" style="rounded=0;whiteSpace=wrap;html=1;" parent="1" vertex="1">
          <mxGeometry x="100" y="160" width="100" height="50" as="geometry" />
        </mxCell>
        <mxCell id="RNrHDuI6F-FysctBrL8V-7" value="fileHander&lt;div&gt;streamHander&lt;/div&gt;" style="whiteSpace=wrap;html=1;rounded=0;" parent="1" vertex="1">
          <mxGeometry x="-60" y="155" width="120" height="60" as="geometry" />
        </mxCell>
        <mxCell id="RNrHDuI6F-FysctBrL8V-16" value="" style="edgeStyle=orthogonalEdgeStyle;rounded=0;orthogonalLoop=1;jettySize=auto;html=1;" parent="1" source="RNrHDuI6F-FysctBrL8V-9" target="RNrHDuI6F-FysctBrL8V-15" edge="1">
          <mxGeometry relative="1" as="geometry" />
        </mxCell>
        <mxCell id="RNrHDuI6F-FysctBrL8V-9" value="Save Path" style="rounded=0;whiteSpace=wrap;html=1;" parent="1" vertex="1">
          <mxGeometry x="100" y="340" width="100" height="50" as="geometry" />
        </mxCell>
        <mxCell id="RNrHDuI6F-FysctBrL8V-18" value="" style="edgeStyle=orthogonalEdgeStyle;rounded=0;orthogonalLoop=1;jettySize=auto;html=1;" parent="1" source="RNrHDuI6F-FysctBrL8V-15" target="RNrHDuI6F-FysctBrL8V-17" edge="1">
          <mxGeometry relative="1" as="geometry" />
        </mxCell>
        <mxCell id="RNrHDuI6F-FysctBrL8V-15" value="&lt;div style=&quot;color: rgb(241, 241, 241); background-color: rgb(28, 35, 49); font-family: &amp;quot;Fira Code&amp;quot;, &amp;quot;Droid Sans Mono&amp;quot;, &amp;quot;monospace&amp;quot;, monospace; line-height: 19px; white-space: pre;&quot;&gt;&lt;font style=&quot;font-size: 9px;&quot;&gt;VideoCompressor&lt;span style=&quot;color: rgb(137, 221, 255);&quot;&gt;()&lt;/span&gt;&lt;/font&gt;&lt;/div&gt;" style="shape=hexagon;perimeter=hexagonPerimeter2;whiteSpace=wrap;html=1;fixedSize=1;rounded=0;" parent="1" vertex="1">
          <mxGeometry x="90" y="420" width="120" height="80" as="geometry" />
        </mxCell>
        <mxCell id="RNrHDuI6F-FysctBrL8V-17" value="model" style="whiteSpace=wrap;html=1;rounded=0;" parent="1" vertex="1">
          <mxGeometry x="100" y="530" width="100" height="40" as="geometry" />
        </mxCell>
        <mxCell id="RNrHDuI6F-FysctBrL8V-24" value="" style="edgeStyle=orthogonalEdgeStyle;rounded=0;orthogonalLoop=1;jettySize=auto;html=1;" parent="1" source="RNrHDuI6F-FysctBrL8V-19" target="RNrHDuI6F-FysctBrL8V-4" edge="1">
          <mxGeometry relative="1" as="geometry" />
        </mxCell>
        <mxCell id="HRzx6jAXvU5smbXzW3e8-10" value="" style="edgeStyle=orthogonalEdgeStyle;rounded=0;orthogonalLoop=1;jettySize=auto;html=1;" parent="1" source="RNrHDuI6F-FysctBrL8V-19" target="HRzx6jAXvU5smbXzW3e8-9" edge="1">
          <mxGeometry relative="1" as="geometry" />
        </mxCell>
        <mxCell id="RNrHDuI6F-FysctBrL8V-19" value="main.py" style="text;strokeColor=none;fillColor=none;html=1;fontSize=24;fontStyle=1;verticalAlign=middle;align=center;" parent="1" vertex="1">
          <mxGeometry x="100" y="-20" width="100" height="40" as="geometry" />
        </mxCell>
        <mxCell id="RNrHDuI6F-FysctBrL8V-23" value="" style="edgeStyle=orthogonalEdgeStyle;rounded=0;orthogonalLoop=1;jettySize=auto;html=1;" parent="1" source="RNrHDuI6F-FysctBrL8V-21" target="RNrHDuI6F-FysctBrL8V-22" edge="1">
          <mxGeometry relative="1" as="geometry" />
        </mxCell>
        <mxCell id="RNrHDuI6F-FysctBrL8V-26" value="" style="edgeStyle=orthogonalEdgeStyle;rounded=0;orthogonalLoop=1;jettySize=auto;html=1;" parent="1" source="RNrHDuI6F-FysctBrL8V-21" target="RNrHDuI6F-FysctBrL8V-22" edge="1">
          <mxGeometry relative="1" as="geometry" />
        </mxCell>
        <mxCell id="RNrHDuI6F-FysctBrL8V-28" value="" style="edgeStyle=orthogonalEdgeStyle;rounded=0;orthogonalLoop=1;jettySize=auto;html=1;" parent="1" source="RNrHDuI6F-FysctBrL8V-21" target="RNrHDuI6F-FysctBrL8V-27" edge="1">
          <mxGeometry relative="1" as="geometry" />
        </mxCell>
        <mxCell id="RNrHDuI6F-FysctBrL8V-31" value="" style="edgeStyle=orthogonalEdgeStyle;rounded=0;orthogonalLoop=1;jettySize=auto;html=1;" parent="1" source="RNrHDuI6F-FysctBrL8V-21" target="RNrHDuI6F-FysctBrL8V-30" edge="1">
          <mxGeometry relative="1" as="geometry" />
        </mxCell>
        <mxCell id="RNrHDuI6F-FysctBrL8V-21" value="net.py" style="text;strokeColor=none;fillColor=none;html=1;fontSize=24;fontStyle=1;verticalAlign=middle;align=center;" parent="1" vertex="1">
          <mxGeometry x="490" width="100" height="40" as="geometry" />
        </mxCell>
        <mxCell id="RNrHDuI6F-FysctBrL8V-22" value="&lt;div style=&quot;color: rgb(241, 241, 241); font-family: &amp;quot;Fira Code&amp;quot;, &amp;quot;Droid Sans Mono&amp;quot;, &amp;quot;monospace&amp;quot;, monospace; font-size: 14px; line-height: 19px; white-space: pre;&quot;&gt;&lt;span style=&quot;color: rgb(130, 170, 255);&quot;&gt;function&lt;/span&gt;&lt;/div&gt;&lt;div style=&quot;color: rgb(241, 241, 241); background-color: rgb(28, 35, 49); font-family: &amp;quot;Fira Code&amp;quot;, &amp;quot;Droid Sans Mono&amp;quot;, &amp;quot;monospace&amp;quot;, monospace; font-size: 14px; line-height: 19px; white-space: pre;&quot;&gt;&lt;span style=&quot;color: #82aaff;&quot;&gt;save_model()&lt;/span&gt;&lt;/div&gt;" style="rounded=0;whiteSpace=wrap;html=1;" parent="1" vertex="1">
          <mxGeometry x="330" y="70" width="110" height="60" as="geometry" />
        </mxCell>
        <mxCell id="RNrHDuI6F-FysctBrL8V-27" value="&lt;div style=&quot;color: rgb(241, 241, 241); font-family: &amp;quot;Fira Code&amp;quot;, &amp;quot;Droid Sans Mono&amp;quot;, &amp;quot;monospace&amp;quot;, monospace; font-size: 14px; line-height: 19px; white-space: pre;&quot;&gt;&lt;span style=&quot;color: rgb(130, 170, 255); background-color: rgb(251, 251, 251);&quot;&gt;function&lt;/span&gt;&lt;span style=&quot;color: rgb(130, 170, 255); background-color: rgb(28, 35, 49);&quot;&gt;&lt;/span&gt;&lt;/div&gt;&lt;div style=&quot;color: rgb(241, 241, 241); background-color: rgb(28, 35, 49); font-family: &amp;quot;Fira Code&amp;quot;, &amp;quot;Droid Sans Mono&amp;quot;, &amp;quot;monospace&amp;quot;, monospace; font-size: 14px; line-height: 19px; white-space: pre;&quot;&gt;&lt;span style=&quot;color: #82aaff;&quot;&gt;load_model()&lt;/span&gt;&lt;/div&gt;" style="whiteSpace=wrap;html=1;" parent="1" vertex="1">
          <mxGeometry x="630" y="70" width="120" height="60" as="geometry" />
        </mxCell>
        <mxCell id="RNrHDuI6F-FysctBrL8V-30" value="&lt;div style=&quot;color: rgb(241, 241, 241); font-family: &amp;quot;Fira Code&amp;quot;, &amp;quot;Droid Sans Mono&amp;quot;, &amp;quot;monospace&amp;quot;, monospace; font-size: 14px; line-height: 19px; white-space: pre;&quot;&gt;&lt;span style=&quot;color: rgb(255, 203, 107);&quot;&gt;class&lt;/span&gt;&lt;/div&gt;&lt;div style=&quot;color: rgb(241, 241, 241); background-color: rgb(28, 35, 49); font-family: &amp;quot;Fira Code&amp;quot;, &amp;quot;Droid Sans Mono&amp;quot;, &amp;quot;monospace&amp;quot;, monospace; font-size: 14px; line-height: 19px; white-space: pre;&quot;&gt;&lt;span style=&quot;color: #ffcb6b;&quot;&gt;VideoCompressor&lt;/span&gt;&lt;/div&gt;" style="whiteSpace=wrap;html=1;" parent="1" vertex="1">
          <mxGeometry x="460" y="110" width="160" height="110" as="geometry" />
        </mxCell>
        <mxCell id="HRzx6jAXvU5smbXzW3e8-8" style="edgeStyle=orthogonalEdgeStyle;rounded=0;orthogonalLoop=1;jettySize=auto;html=1;entryX=0.5;entryY=0;entryDx=0;entryDy=0;" parent="1" source="HRzx6jAXvU5smbXzW3e8-5" target="RNrHDuI6F-FysctBrL8V-9" edge="1">
          <mxGeometry relative="1" as="geometry" />
        </mxCell>
        <mxCell id="HRzx6jAXvU5smbXzW3e8-5" value="&lt;div style=&quot;color: rgb(241, 241, 241); background-color: rgb(28, 35, 49); font-family: &amp;quot;Fira Code&amp;quot;, &amp;quot;Droid Sans Mono&amp;quot;, &amp;quot;monospace&amp;quot;, monospace; line-height: 19px; white-space: pre;&quot;&gt;&lt;font style=&quot;font-size: 10px;&quot;&gt;parse_config&lt;span style=&quot;color: rgb(137, 221, 255);&quot;&gt;(&lt;/span&gt;args&lt;span style=&quot;color: rgb(137, 221, 255);&quot;&gt;.&lt;/span&gt;config&lt;span style=&quot;color: rgb(137, 221, 255);&quot;&gt;)&lt;/span&gt;&lt;/font&gt;&lt;/div&gt;" style="shape=hexagon;perimeter=hexagonPerimeter2;whiteSpace=wrap;html=1;fixedSize=1;" parent="1" vertex="1">
          <mxGeometry x="70" y="230" width="160" height="80" as="geometry" />
        </mxCell>
        <mxCell id="HRzx6jAXvU5smbXzW3e8-9" value="&lt;div style=&quot;color: rgb(241, 241, 241); font-family: &amp;quot;Fira Code&amp;quot;, &amp;quot;Droid Sans Mono&amp;quot;, &amp;quot;monospace&amp;quot;, monospace; line-height: 19px; white-space: pre;&quot;&gt;&lt;font style=&quot;font-size: 12px;&quot;&gt;&lt;span style=&quot;color: rgb(130, 170, 255);&quot;&gt;function&lt;/span&gt;&lt;/font&gt;&lt;/div&gt;&lt;div style=&quot;color: rgb(241, 241, 241); background-color: rgb(28, 35, 49); font-family: &amp;quot;Fira Code&amp;quot;, &amp;quot;Droid Sans Mono&amp;quot;, &amp;quot;monospace&amp;quot;, monospace; line-height: 19px; white-space: pre;&quot;&gt;&lt;font style=&quot;font-size: 9px;&quot;&gt;&lt;span style=&quot;color: rgb(130, 170, 255);&quot;&gt;parse_config&lt;/span&gt;&lt;span style=&quot;color: rgb(137, 221, 255);&quot;&gt;(&lt;/span&gt;&lt;span style=&quot;color: rgb(255, 83, 112);&quot;&gt;config&lt;/span&gt;&lt;span style=&quot;color: rgb(137, 221, 255);&quot;&gt;)&lt;/span&gt;&lt;/font&gt;&lt;/div&gt;" style="whiteSpace=wrap;html=1;" parent="1" vertex="1">
          <mxGeometry x="-90" y="-30" width="120" height="60" as="geometry" />
        </mxCell>
        <mxCell id="HRzx6jAXvU5smbXzW3e8-13" value="" style="edgeStyle=orthogonalEdgeStyle;rounded=0;orthogonalLoop=1;jettySize=auto;html=1;" parent="1" source="HRzx6jAXvU5smbXzW3e8-11" target="HRzx6jAXvU5smbXzW3e8-12" edge="1">
          <mxGeometry relative="1" as="geometry" />
        </mxCell>
        <mxCell id="HRzx6jAXvU5smbXzW3e8-15" value="" style="edgeStyle=orthogonalEdgeStyle;rounded=0;orthogonalLoop=1;jettySize=auto;html=1;" parent="1" source="HRzx6jAXvU5smbXzW3e8-11" target="HRzx6jAXvU5smbXzW3e8-14" edge="1">
          <mxGeometry relative="1" as="geometry">
            <Array as="points">
              <mxPoint x="535" y="430" />
              <mxPoint x="535" y="390" />
            </Array>
          </mxGeometry>
        </mxCell>
        <mxCell id="HRzx6jAXvU5smbXzW3e8-11" value="&lt;div style=&quot;color: rgb(241, 241, 241); font-family: &amp;quot;Fira Code&amp;quot;, &amp;quot;Droid Sans Mono&amp;quot;, &amp;quot;monospace&amp;quot;, monospace; font-size: 14px; line-height: 19px; white-space: pre;&quot;&gt;&lt;span style=&quot;color: rgb(255, 203, 107);&quot;&gt;class&lt;/span&gt;&lt;/div&gt;&lt;div style=&quot;color: rgb(241, 241, 241); background-color: rgb(28, 35, 49); font-family: &amp;quot;Fira Code&amp;quot;, &amp;quot;Droid Sans Mono&amp;quot;, &amp;quot;monospace&amp;quot;, monospace; font-size: 14px; line-height: 19px; white-space: pre;&quot;&gt;&lt;span style=&quot;color: #ffcb6b;&quot;&gt;VideoCompressor&lt;/span&gt;&lt;/div&gt;" style="whiteSpace=wrap;html=1;" parent="1" vertex="1">
          <mxGeometry x="300" y="410" width="160" height="110" as="geometry" />
        </mxCell>
        <mxCell id="HRzx6jAXvU5smbXzW3e8-12" value="&lt;div style=&quot;color: rgb(241, 241, 241); font-family: &amp;quot;Fira Code&amp;quot;, &amp;quot;Droid Sans Mono&amp;quot;, &amp;quot;monospace&amp;quot;, monospace; line-height: 19px; white-space: pre;&quot;&gt;&lt;font style=&quot;font-size: 10px;&quot;&gt;&lt;span style=&quot;color: rgb(130, 170, 255);&quot;&gt;function&lt;/span&gt;&lt;/font&gt;&lt;/div&gt;&lt;div style=&quot;color: rgb(241, 241, 241); background-color: rgb(28, 35, 49); font-family: &amp;quot;Fira Code&amp;quot;, &amp;quot;Droid Sans Mono&amp;quot;, &amp;quot;monospace&amp;quot;, monospace; line-height: 19px; white-space: pre;&quot;&gt;&lt;font style=&quot;font-size: 10px;&quot;&gt;&lt;span style=&quot;color: rgb(130, 170, 255);&quot;&gt;save_frame&lt;/span&gt;&lt;span style=&quot;color: rgb(137, 221, 255);&quot;&gt;(&lt;/span&gt;&lt;span style=&quot;color: rgb(255, 83, 112);&quot;&gt;self&lt;/span&gt;&lt;span style=&quot;color: rgb(137, 221, 255);&quot;&gt;,&lt;/span&gt;&lt;/font&gt;&lt;/div&gt;&lt;div style=&quot;color: rgb(241, 241, 241); background-color: rgb(28, 35, 49); font-family: &amp;quot;Fira Code&amp;quot;, &amp;quot;Droid Sans Mono&amp;quot;, &amp;quot;monospace&amp;quot;, monospace; line-height: 19px; white-space: pre;&quot;&gt;&lt;font style=&quot;font-size: 10px;&quot;&gt; &lt;span style=&quot;color: rgb(255, 83, 112);&quot;&gt;frame&lt;/span&gt;&lt;span style=&quot;color: rgb(137, 221, 255);&quot;&gt;,&lt;/span&gt; &lt;span style=&quot;color: rgb(255, 83, 112);&quot;&gt;filename&lt;/span&gt;&lt;span style=&quot;color: rgb(137, 221, 255);&quot;&gt;)&lt;/span&gt;&lt;/font&gt;&lt;/div&gt;" style="whiteSpace=wrap;html=1;" parent="1" vertex="1">
          <mxGeometry x="460" y="290" width="120" height="60" as="geometry" />
        </mxCell>
        <mxCell id="HRzx6jAXvU5smbXzW3e8-14" value="&lt;div style=&quot;color: rgb(241, 241, 241); font-family: &amp;quot;Fira Code&amp;quot;, &amp;quot;Droid Sans Mono&amp;quot;, &amp;quot;monospace&amp;quot;, monospace; line-height: 19px; white-space: pre;&quot;&gt;&lt;font style=&quot;font-size: 10px;&quot;&gt;&lt;span style=&quot;color: rgb(130, 170, 255);&quot;&gt;function&lt;/span&gt;&lt;/font&gt;&lt;/div&gt;&lt;div style=&quot;color: rgb(241, 241, 241); background-color: rgb(28, 35, 49); font-family: &amp;quot;Fira Code&amp;quot;, &amp;quot;Droid Sans Mono&amp;quot;, &amp;quot;monospace&amp;quot;, monospace; line-height: 19px; white-space: pre;&quot;&gt;&lt;font style=&quot;font-size: 10px;&quot;&gt;&lt;span style=&quot;color: rgb(130, 170, 255);&quot;&gt;__init__&lt;/span&gt;&lt;span style=&quot;color: rgb(137, 221, 255);&quot;&gt;(&lt;/span&gt;&lt;span style=&quot;color: rgb(255, 83, 112);&quot;&gt;self&lt;/span&gt;&lt;span style=&quot;color: rgb(137, 221, 255);&quot;&gt;)&lt;/span&gt;&lt;/font&gt;&lt;/div&gt;" style="whiteSpace=wrap;html=1;" parent="1" vertex="1">
          <mxGeometry x="630" y="360" width="120" height="60" as="geometry" />
        </mxCell>
      </root>
    </mxGraphModel>
  </diagram>
</mxfile>
